<svg id="Icons" height="512" viewBox="0 0 60 60" width="512" xmlns="http://www.w3.org/2000/svg"><path d="m5.039 48.32a1 1 0 0 1 -.585-.19 10.734 10.734 0 0 1 -4.454-9.13c0-4.18.7-11.271 4.051-21.316.92-2.76.923-4.9.009-6.18a4.166 4.166 0 0 0 -3.06-1.504 1 1 0 0 1 0-2 6.144 6.144 0 0 1 4.672 2.321c1.335 1.852 1.428 4.542.277 7.995-3.264 9.791-3.949 16.652-3.949 20.684a8.738 8.738 0 0 0 3.626 7.509 1 1 0 0 1 -.587 1.811z" fill="#fb7b76"/><path d="m59 42a4.1 4.1 0 0 1 -.05.71v.01c-.67 5.99-10.13 2.28-14.95 2.28a9.5 9.5 0 0 1 -1.44 3 5.22 5.22 0 0 1 -2.56 2h6a3 3 0 0 1 3 3v1h-38.74a4.028 4.028 0 0 1 -3.6-2.25 29 29 0 0 1 -2.66-12.75c0-10 7-18 19-18 5.39 0 9.02 2.97 12.33 5.2.29.21.58.4.87.58h.01c.48-1.93 1.96-3.25 4.79-2.78a5.456 5.456 0 0 1 2.47 1.02 3.84 3.84 0 0 1 .78-.66 3.4 3.4 0 0 1 2.75-.36c3.14.78 3.81 4.03 2.51 6.35.32.11.62.23.93.37h.01c4.15 1.68 7.94 4.72 8.48 9.96a11.2 11.2 0 0 1 .07 1.32z" fill="#cb8252"/><g fill="#a56a43"><path d="m38 35a1 1 0 0 1 -.8-.4c-2.223-2.965-2.821-7.17-1.359-9.574.6-.984 2.08-2.554 5.324-2.012a5.774 5.774 0 0 1 4.156 2.566c1.739 2.75.686 6.535.64 6.7a1 1 0 0 1 -1.923-.548c.008-.031.85-3.1-.411-5.084a3.821 3.821 0 0 0 -2.792-1.657c-1.582-.264-2.689.1-3.285 1.079-1.032 1.7-.459 5.056 1.25 7.335a1 1 0 0 1 -.8 1.595z"/><path d="m50.382 30.839-1.744-.978a3.7 3.7 0 0 0 .238-3.2 2.965 2.965 0 0 0 -2.117-1.692 2.376 2.376 0 0 0 -2.551.725l-1.475-1.352a4.359 4.359 0 0 1 4.511-1.314 4.958 4.958 0 0 1 3.467 2.838 5.654 5.654 0 0 1 -.329 4.973z"/><path d="m30 54v-2a4 4 0 0 0 -4-4h-5.84a8.551 8.551 0 0 0 .84-4c0-2.57-1.81-4.58-4.62-5.12a6.416 6.416 0 0 0 -7.31 3.75 1 1 0 1 0 1.86.74 4.434 4.434 0 0 1 5.07-2.53 3.325 3.325 0 0 1 3 3.16c0 3.24-1.41 4.08-1.45 4.11a1 1 0 0 0 .45 1.89h8a2.006 2.006 0 0 1 2 2v2z"/></g><circle cx="48" cy="37" fill="#3f5c6c" r="2"/><path d="m59 42a4.1 4.1 0 0 1 -.05.71.4.4 0 0 1 -.19-.02l-2.99-.72a1 1 0 1 1 .46-1.94l2.7.65a11.2 11.2 0 0 1 .07 1.32z" fill="#a56a43"/></svg>